# xmcd CD database file
# Copyright (C) 1996 Ti Kan
#
# Track frame offsets:
# 	150
# 	10488
# 	23325
# 	35618
# 	45940
# 	58995
# 	71613
# 	83358
# 	94378
# 	107315
# 	119120
# 	131355
# 	143543
# 	155788
# 	165525
# 	175543
# 	184688
# 	194645
#
# Disc length: 2733 seconds
#
# Revision: 1
# Processed by: cddbd v1.4b41PL1 Copyright (c) Steve Scherf et al.
# Submitted via: DiscPlay 3.4.1
#
DISCID=e80aab12
DTITLE=George Jones - The Best Of George Jones
DYEAR=1900
DGENRE=
TTITLE0=Why, Baby, Why
TTITLE1=What Am I Worth
TTITLE2=Just One More
TTITLE3=Don't Stop The Music
TTITLE4=Color Of The Blues
TTITLE5=White Lightning
TTITLE6=The Window Up Above
TTITLE7=Tender Years
TTITLE8=Aching, Breaking Heart
TTITLE9=She Thinks I Still Care
TTITLE10=A Girl I Used To Know
TTITLE11=We Must Have Been Out Of Our Minds
TTITLE12=You Comb Her Hair
TTITLE13=The Race Is On
TTITLE14=I've Got Five Dollars And It's Saturday Night
TTITLE15=Love Bug
TTITLE16=I'm A People
TTITLE17=Walk Through This World With Me
EXTD=
EXTT0=
EXTT1=
EXTT2=
EXTT3=
EXTT4=
EXTT5=
EXTT6=
EXTT7=
EXTT8=
EXTT9=
EXTT10=
EXTT11=With Melba Montgomery
EXTT12=
EXTT13=
EXTT14=With Gene Pitney
EXTT15=
EXTT16=
EXTT17=
PLAYORDER=
